<svg width="326" height="87" viewBox="0 0 326 87" fill="none" xmlns="http://www.w3.org/2000/svg">
<defs>
<symbol id="brush-stroke">
<path fill-rule="evenodd" clip-rule="evenodd" d="M234.643 0.330413C231.327 0.568035 228.426 0.847698 228.197 0.952496C227.968 1.05668 229.372 1.31441 231.316 1.52462C234.841 1.90603 234.836 1.90725 229.445 2.09491C226.471 2.19849 222.073 2.49887 219.671 2.76208C216.65 3.09353 218.188 3.15385 224.662 2.95766C239.459 2.50984 254.652 2.1138 256.606 2.12416C257.697 2.13025 258.298 1.89506 258.141 1.52462C257.973 1.12431 261.611 0.915329 268.747 0.915329C276.457 0.915329 279.528 1.10725 279.33 1.57701C279.154 1.99377 279.414 2.1863 280.033 2.09613C280.573 2.01692 281.296 2.11502 281.639 2.31425C281.982 2.51288 285.07 2.96863 288.502 3.32689C291.933 3.68515 295.442 4.22011 296.299 4.51561C297.158 4.81051 297.859 4.82513 297.859 4.5479C297.859 3.85575 296.758 3.45301 290.373 1.80854C289.572 1.60261 288.075 1.15051 287.046 0.804439C284.828 0.0586708 243.649 -0.313604 234.643 0.330413ZM108.004 0.971992C106.05 1.31137 106.106 1.33878 108.94 1.42896C111.925 1.5234 112.827 1.26567 111.019 0.834294C110.505 0.711218 109.148 0.773364 108.004 0.971992ZM103.429 1.27176C102.972 1.37595 100.96 1.63733 98.9586 1.85241C96.9573 2.06749 95.3195 2.44525 95.3195 2.69262C95.3195 2.93938 95.9275 3.0326 96.6712 2.89917C97.7076 2.71334 97.8772 2.80656 97.399 3.30008C96.9249 3.78873 97.2243 3.92826 98.6466 3.88012C100.353 3.82285 100.408 3.77654 99.2705 3.35248L98.0228 2.88759L99.5479 2.81509C100.386 2.77548 101.135 2.98752 101.211 3.28668C101.29 3.59558 102.874 3.63336 104.885 3.3738C108.698 2.88272 108.632 2.64814 104.677 2.63535C103.305 2.63048 102.65 2.49277 103.221 2.32888C104.204 2.04739 105.534 0.814188 104.656 0.998193C104.439 1.04389 103.887 1.16696 103.429 1.27176ZM246.826 1.36559C245.406 1.4844 242.973 1.48501 241.419 1.36742C239.865 1.25044 241.027 1.15295 244.001 1.15234C246.975 1.15112 248.246 1.24739 246.826 1.36559ZM252.631 1.31868C252.345 1.48806 251.877 1.48806 251.591 1.31868C251.305 1.1499 251.539 1.0116 252.111 1.0116C252.683 1.0116 252.917 1.1499 252.631 1.31868ZM284.239 1.92796C283.953 2.09735 283.485 2.09735 283.199 1.92796C282.913 1.75919 283.147 1.62088 283.719 1.62088C284.291 1.62088 284.525 1.75919 284.239 1.92796ZM287.158 1.92431C286.876 2.09125 286.315 2.10161 285.91 1.94685C285.505 1.79209 285.736 1.65561 286.422 1.64343C287.108 1.63124 287.439 1.75736 287.158 1.92431ZM109.148 2.5537C109.548 2.70724 110.203 2.70724 110.604 2.5537C111.004 2.40077 110.676 2.27526 109.876 2.27526C109.075 2.27526 108.748 2.40077 109.148 2.5537ZM113.099 2.53725C113.385 2.70663 113.853 2.70663 114.139 2.53725C114.425 2.36848 114.191 2.23017 113.619 2.23017C113.047 2.23017 112.813 2.36848 113.099 2.53725ZM33.4788 3.5438C33.359 3.82772 31.176 4.00381 28.6274 3.93496C24.0031 3.81127 15.9036 4.70814 14.5403 5.49534C14.0841 5.75856 13.8524 6.47264 13.9073 7.44567C14.0009 9.10172 14.0653 9.16082 16.4039 9.7299C18.3178 10.196 18.4721 11.1818 16.6118 11.0581C15.3733 10.9759 15.2702 11.1087 15.38 12.6441C15.4848 14.1113 15.3554 14.3209 14.3402 14.3288C12.8859 14.341 12.3735 14.8826 12.2587 16.5302C12.1843 17.6019 12.4542 17.8931 13.8183 18.2124C16.0263 18.7297 15.9069 19.5723 13.5708 19.958C11.7255 20.2626 9.43105 22.4573 9.87023 23.498C9.97919 23.7569 9.50674 24.1499 8.8201 24.3711C7.74086 24.7184 7.65186 24.8902 8.16299 25.639C8.48822 26.1155 9.00185 26.5097 9.3042 26.5146C9.71843 26.5219 9.70388 26.6626 9.24515 27.0879C8.81886 27.4827 9.30503 27.7075 10.8709 27.8398C13.078 28.0262 13.105 28.0518 13.1425 30.0088C13.1637 31.0982 13.0402 31.989 12.8688 31.989C12.6975 31.989 12.5569 32.5374 12.5569 33.2076C12.5569 34.1105 12.2608 34.4475 11.4132 34.509C10.4163 34.5815 10.3909 34.626 11.2161 34.8581C12.4217 35.1969 14.6147 36.8548 13.864 36.8597C13.5467 36.8615 13.3995 37.2435 13.5276 37.7328C13.8661 39.0251 13.0427 39.7221 10.3057 40.4605C7.8569 41.121 6.80177 41.7376 8.12057 41.7376C8.50194 41.7376 8.81387 42.1489 8.81387 42.6515C8.81387 43.3626 8.25948 43.5655 6.31851 43.5655C3.62769 43.5655 2.79091 44.7292 5.38275 44.8669C6.34804 44.9181 6.58593 45.0503 6.00659 45.2142C5.49172 45.3592 5.07083 45.7144 5.07083 46.0038C5.07083 46.2933 4.69362 46.7051 4.23281 46.9196C3.772 47.1335 3.49834 47.5533 3.62394 47.8512C3.74996 48.1498 3.23799 48.6536 2.48648 48.9711C1.30576 49.4701 1.54407 49.5584 4.23905 49.6218C7.44184 49.6973 7.56078 50.3389 4.52061 51.1395C3.1727 51.4941 3.00842 51.6964 3.44386 52.4647C3.85726 53.1947 4.02736 53.2172 4.31432 52.5811C4.59131 51.9663 4.80965 52.0577 5.29541 52.9912C5.8681 54.0909 5.84106 54.2414 4.97559 54.7898C4.1671 55.3016 4.3609 55.4356 6.31851 55.722C8.37136 56.0218 8.51525 56.132 7.72215 56.798C7.23638 57.2062 6.0199 57.7229 5.01885 57.9459C1.90756 58.6393 1.72831 59.3655 4.65494 59.421L7.35824 59.4715L3.82316 61.4194L0.28807 63.3673L2.36753 63.672L4.44699 63.9766L1.99656 64.801C0.284327 65.3774 -0.279207 65.7874 0.125041 66.1627C0.443614 66.4582 1.07827 66.7233 1.53575 66.7519C2.36171 66.8037 2.36171 66.8074 1.54324 67.2759C0.945182 67.6177 1.45923 67.8919 3.41475 68.2739C5.85729 68.7504 5.95419 68.8204 4.44699 69.0185C3.53203 69.1385 2.60584 69.4931 2.38833 69.8057C2.14337 70.1578 3.8818 70.3924 6.96314 70.4223C10.8014 70.4594 11.6727 70.6099 10.7894 71.0821C10.1264 71.4373 9.64565 72.1502 9.64565 72.779C9.64565 73.6588 8.91867 74.0804 5.80405 75.0065C3.69132 75.6347 2.31513 76.2483 2.74558 76.3695C3.37191 76.5462 3.41226 76.6979 2.9477 77.1287C2.521 77.5247 2.64244 77.6716 3.40726 77.6856C3.97912 77.6959 4.72232 77.9598 5.05919 78.2717C5.73959 78.9017 5.56283 79.0559 3.34904 79.762C2.74516 79.9546 2.14961 80.5005 2.02525 80.9757C1.83561 81.6983 2.55427 81.7934 6.45035 81.5582C9.8877 81.3511 10.9387 81.4522 10.4774 81.9457C9.95133 82.5093 9.98419 82.5989 10.6854 82.5172C12.0753 82.3539 12.3797 82.5489 11.7251 83.1826C11.3009 83.5932 11.8994 83.6469 13.5966 83.3507C16.7033 82.8079 16.5445 82.8018 23.578 83.7425C27.8884 84.3189 34.207 84.4127 47.9078 84.105C59.2803 83.8491 69.9422 83.9369 75.5646 84.3317C94.0947 85.635 95.9379 85.7264 95.673 85.3254C95.5245 85.1006 93.4659 84.7679 91.0982 84.5864C88.7309 84.4054 86.6157 84.0118 86.3986 83.7133C85.8571 82.9681 121.669 83.026 134.299 83.7906C141.544 84.2293 196.267 85.0878 215.304 85.0616C219.552 85.0555 238.077 84.2854 238.927 84.0794C239.629 83.9088 239.991 84.035 239.838 84.3969C239.699 84.7271 239.772 84.997 240.001 84.997C240.23 84.997 240.533 84.7229 240.674 84.3877C241.011 83.589 242.545 83.5981 242.545 84.3987C242.545 85.0878 252.37 85.1286 259.545 84.47C262.83 84.1684 263.907 84.2568 264.06 84.8398C264.171 85.2615 264.532 85.6063 264.865 85.6063C265.197 85.6063 265.353 85.3321 265.212 84.997C265.07 84.6619 265.293 84.3408 265.707 84.2836C266.121 84.2263 266.74 84.1184 267.083 84.0435C267.426 83.9692 268.736 83.8747 269.994 83.8339C271.388 83.7888 272.069 83.5616 271.736 83.2533C271.197 82.7518 274.147 82.2851 282.471 81.5564C286.656 81.1902 288.55 80.1898 285.362 80.0301C284.344 79.9789 283.324 79.8735 283.095 79.7955C282.866 79.7176 280.901 79.5847 278.728 79.5007L274.777 79.3465L277.48 78.8725C278.967 78.6117 282.024 78.3125 284.272 78.2084C286.521 78.1036 288.45 77.8062 288.56 77.5473C288.669 77.2883 289.133 77.0763 289.59 77.0763C290.048 77.0763 290.321 76.8381 290.199 76.5462C290.074 76.2519 289.185 76.2404 288.199 76.52C286.207 77.0842 284.31 77.2262 284.608 76.7887C285.009 76.2014 293.625 74.0262 294.222 74.3613C294.57 74.5569 294.949 74.2943 295.089 73.7599C295.266 73.0867 295.975 72.7826 297.534 72.712L299.731 72.6127L297.443 72.2532C295.644 71.9699 295.395 71.8157 296.275 71.53C296.891 71.3295 298.295 71.3697 299.395 71.6183C300.494 71.8669 301.437 72.015 301.489 71.9473C301.541 71.8791 301.285 71.2003 300.921 70.4381C300.482 69.5205 300.119 69.2573 299.845 69.6582C299.571 70.0597 298.991 70.0494 298.125 69.6265C295.802 68.4926 296.169 68.2374 299.803 68.4597C302.339 68.6145 303.288 68.4823 303.086 68.0028C302.91 67.5873 303.17 67.3064 303.761 67.2729C304.616 67.2241 300.529 66.0074 297.235 65.3298C296.549 65.1885 297.391 65.0276 299.107 64.9728C300.822 64.9174 302.507 64.606 302.85 64.2813C303.367 63.7914 303.332 63.6872 302.642 63.672C302.184 63.6616 301.529 63.3637 301.186 63.0097C300.73 62.5393 301.093 62.4698 302.537 62.7519C305.118 63.2552 305.663 62.7233 304.472 60.8662C303.945 60.0437 303.761 59.407 304.05 59.407C304.332 59.407 304.447 59.1328 304.305 58.7977C304.164 58.4626 303.264 58.1841 302.305 58.1792C301.347 58.1738 300.282 57.8837 299.939 57.534C299.49 57.077 299.927 57.01 301.498 57.2964C303.72 57.7003 304.56 56.8888 302.746 56.0912C301.833 55.6903 301.83 55.6659 302.642 55.095C303.301 54.632 303.169 54.5631 302.007 54.7654C300.333 55.0573 298.574 53.7436 299.752 53.0813C300.121 52.8742 300.759 52.7048 301.169 52.7048C301.58 52.7048 302.149 52.2935 302.434 51.7909C302.841 51.0731 302.842 50.8769 302.44 50.8769C302.157 50.8769 302.036 50.4699 302.169 49.963C302.322 49.3756 302.152 49.0338 301.693 49.0064C301.1 48.9705 301.12 48.8785 301.81 48.4641C302.583 47.9999 302.559 47.917 301.471 47.2882C300.827 46.9166 300.032 46.6119 299.704 46.6119C299.375 46.6119 299.107 46.3377 299.107 46.0026C299.107 45.6675 300.183 45.3665 301.498 45.3342L303.89 45.2751L302.33 44.3374C300.639 43.3211 300.332 42.1239 301.524 41.1899C301.938 40.8651 304.371 40.4051 306.931 40.1675C309.49 39.9305 311.584 39.5241 311.584 39.2645C311.584 39.005 311.069 38.5175 310.44 38.1806C309.482 37.6688 309.788 37.5609 312.311 37.5207C314.022 37.4933 315.327 37.2088 315.327 36.8633C315.327 36.5282 314.941 36.254 314.47 36.254C313.999 36.254 313.725 35.992 313.86 35.6715C313.995 35.3511 314.38 35.2432 314.716 35.4321C315.052 35.6204 315.327 35.5174 315.327 35.203C315.327 34.888 314.437 34.325 313.351 33.9515C311.674 33.3751 312.318 33.302 317.614 33.4665L323.852 33.6609L318.446 32.5471C308.985 30.598 309.154 30.6486 310.336 30.1301C311.298 29.7078 311.307 29.6688 310.464 29.6128C309.196 29.5281 308.874 28.4771 310.018 28.1554C310.542 28.0073 310.191 27.8532 309.227 27.8069C308.274 27.7612 307.432 27.4535 307.355 27.1232C307.279 26.793 305.064 26.2983 302.434 26.0247C297.749 25.5373 297.687 25.5117 299.406 24.7787C300.526 24.3016 303.444 24.0798 307.464 24.1658C313.282 24.2907 313.811 24.2096 314.355 23.1184C314.874 22.0783 315.57 21.9114 320.126 21.7335C324.258 21.5726 325.308 21.3563 325.308 20.6672C325.308 20.192 325.145 19.8032 324.947 19.8032C324.362 19.8032 317.265 17.9675 316.47 17.611C314.968 16.9359 315.826 16.1451 318.134 16.0775C320.5 16.008 320.507 16.0019 318.862 15.5035C317.947 15.2263 315.701 14.9631 313.871 14.9192C310.612 14.84 306.192 14.012 307.425 13.7104C308.598 13.4234 304.309 12.582 301.442 12.5369C298.943 12.4973 298.456 12.298 297.615 10.9686L296.651 9.44536L298.399 9.39052L300.147 9.33569L298.725 8.73675C297.942 8.40774 296.96 8.27004 296.541 8.43028C296.122 8.59053 295.78 8.49365 295.78 8.2146C295.78 7.93554 295.452 7.58155 295.052 7.42801C294.652 7.27507 295.166 7.08315 296.196 7.00272L298.067 6.85588L296.196 6.39404C290.079 4.88545 246.578 4.05255 232.564 5.17608C228.561 5.49717 223.383 5.76648 221.058 5.7744C218.073 5.78537 216.767 6.01385 216.618 6.55124C216.459 7.12458 216.322 7.13738 216.061 6.6012C215.767 6.00045 207.131 5.3089 206.363 5.82436C205.612 6.32824 96.0561 6.26183 88.6652 5.75307C83.7473 5.41431 78.1327 5.03046 76.1884 4.90007C74.2441 4.76968 68.457 4.51988 63.3286 4.34623C58.1999 4.17197 52.1174 3.85758 49.8121 3.64798C43.1462 3.04113 33.7163 2.98081 33.4788 3.5438ZM244.547 3.15933C244.847 3.33542 245.206 3.31349 245.344 3.1112C245.482 2.90892 245.237 2.76513 244.798 2.79132C244.314 2.82057 244.215 2.96497 244.547 3.15933ZM233.318 3.76862C233.618 3.94471 233.977 3.92277 234.115 3.72049C234.253 3.51821 234.008 3.37441 233.569 3.40061C233.085 3.42986 232.986 3.57426 233.318 3.76862ZM236.645 3.76862C236.945 3.94471 237.304 3.92277 237.442 3.72049C237.58 3.51821 237.335 3.37441 236.896 3.40061C236.412 3.42986 236.313 3.57426 236.645 3.76862ZM103.117 5.00121C103.632 5.14622 104.474 5.14622 104.989 5.00121C105.504 4.85559 105.083 4.73678 104.053 4.73678C103.024 4.73678 102.603 4.85559 103.117 5.00121ZM187.344 7.4079C187.062 7.57484 186.501 7.5852 186.096 7.43044C185.691 7.27568 185.922 7.1392 186.608 7.12702C187.294 7.11483 187.625 7.24095 187.344 7.4079ZM294.003 7.37622C293.865 7.5785 293.506 7.60043 293.207 7.42435C292.875 7.22999 292.973 7.08559 293.458 7.05634C293.896 7.03014 294.141 7.17393 294.003 7.37622ZM232.029 8.45831C232.171 8.66608 230.805 8.86714 228.994 8.90553C227.183 8.9433 220.929 9.11391 215.097 9.2839C209.264 9.4545 188.617 9.80484 169.216 10.0638C149.814 10.3227 132.92 10.7206 131.672 10.9491C129.381 11.3683 126.638 10.8845 127.141 10.1491C127.43 9.72563 131.367 9.6123 153.44 9.39479C161.865 9.31131 167.269 9.03104 167.269 8.67704C167.269 8.35778 167.532 8.24445 167.854 8.42541C168.743 8.92502 182.593 8.84034 192.638 8.2737C202.459 7.71925 231.618 7.85633 232.029 8.45831ZM242.892 7.92275C242.593 8.36083 235.464 8.41383 235.168 7.98002C235.032 7.78078 236.761 7.61749 239.01 7.61749C241.259 7.61749 243.006 7.75458 242.892 7.92275ZM244.512 7.9855C244.374 8.18779 244.015 8.20972 243.715 8.03364C243.383 7.83927 243.482 7.69488 243.967 7.66563C244.405 7.63943 244.65 7.78322 244.512 7.9855ZM212.918 8.65755C213.435 8.80317 214.184 8.79768 214.582 8.64536C214.979 8.49304 214.556 8.37362 213.641 8.38032C212.726 8.38702 212.401 8.51193 212.918 8.65755ZM269.721 8.68375C269.827 8.93477 267.327 9.14071 264.166 9.14071C261.006 9.14071 258.279 8.93477 258.107 8.68375C257.936 8.43272 260.435 8.22678 263.662 8.22678C266.889 8.22678 269.616 8.43272 269.721 8.68375ZM271.866 8.83607C270.73 9.55137 270.41 9.55137 270.41 8.83607C270.41 8.50096 270.925 8.24628 271.554 8.26943C272.567 8.30782 272.603 8.37179 271.866 8.83607ZM195.888 9.25221C196.188 9.4283 196.546 9.40636 196.685 9.20408C196.823 9.00179 196.577 8.85801 196.139 8.8842C195.654 8.91345 195.556 9.05785 195.888 9.25221ZM198.364 9.2778C199.112 9.41306 200.235 9.41063 200.86 9.27171C201.485 9.13218 200.873 9.02129 199.501 9.02495C198.128 9.02799 197.617 9.14193 198.364 9.2778ZM114.411 10.6999C114.112 10.971 113.697 11.0393 113.49 10.8522C113.284 10.6651 113.359 10.2898 113.658 10.0187C113.958 9.74757 114.372 9.67933 114.579 9.86638C114.786 10.0534 114.71 10.4287 114.411 10.6999ZM121.937 10.1869C121.937 10.4495 120.58 10.6316 118.921 10.592C116.683 10.5384 116.228 10.4025 117.154 10.065C118.75 9.48252 121.937 9.56417 121.937 10.1869ZM126.096 9.76523C126.096 10.416 123.85 11.3086 123.217 10.9095C122.699 10.5829 122.779 10.3983 123.6 10.0315C124.87 9.46363 126.096 9.33325 126.096 9.76523ZM112.564 10.6987C112.431 11.0143 110.883 11.269 109.123 11.2641C107.364 11.2586 106.144 11.0533 106.411 10.8071C107.151 10.1253 112.849 10.0248 112.564 10.6987ZM245.569 10.4543C245.287 10.6213 244.726 10.6316 244.321 10.4769C243.916 10.3221 244.147 10.1856 244.833 10.1735C245.519 10.1613 245.85 10.2874 245.569 10.4543ZM274.673 11.0941C274.159 11.2391 273.316 11.2391 272.802 11.0941C272.287 10.9485 272.708 10.8297 273.737 10.8297C274.767 10.8297 275.188 10.9485 274.673 11.0941ZM16.7158 19.194C16.7158 19.5291 16.6335 19.8032 16.5324 19.8032C16.4314 19.8032 16.2334 19.5291 16.092 19.194C15.9506 18.8589 16.0333 18.5847 16.2754 18.5847C16.5174 18.5847 16.7158 18.8589 16.7158 19.194ZM5.40896 41.5445C5.70881 41.7206 6.06773 41.6986 6.20581 41.4963C6.34388 41.294 6.09851 41.1503 5.66016 41.1765C5.17564 41.2057 5.07707 41.3501 5.40896 41.5445ZM301.074 51.8542C300.935 52.0565 300.577 52.0784 300.277 51.9024C299.945 51.708 300.043 51.5636 300.528 51.5343C300.966 51.5081 301.212 51.6519 301.074 51.8542ZM8.81387 53.3141C8.81387 53.6492 8.61548 53.9234 8.37343 53.9234C8.13138 53.9234 8.04862 53.6492 8.19003 53.3141C8.33143 52.979 8.5294 52.7048 8.63046 52.7048C8.73152 52.7048 8.81387 52.979 8.81387 53.3141ZM132.559 62.4942C133.006 63.555 132.497 63.7798 131.926 62.7727C131.598 62.1938 131.567 61.8441 131.843 61.8441C132.086 61.8441 132.408 62.1366 132.559 62.4942ZM158.932 63.9943C159.179 63.7707 159.273 63.3326 159.141 63.0206C159.004 62.6947 159.959 62.4534 161.387 62.4534C162.823 62.4534 163.937 62.7361 164.025 63.1224C164.109 63.4904 165.056 63.937 166.131 64.1143C168.807 64.5567 168.197 65.4949 165.383 65.2628C163.691 65.1233 163.11 65.2854 163.11 65.8971C163.11 66.9317 161.588 66.9822 161.306 65.9568C161.184 65.5151 161.082 65.6582 161.063 66.2974C161.045 66.9036 160.877 67.2607 160.689 67.0901C160.501 66.9201 160.035 67.3149 159.653 67.968C158.839 69.3621 156.872 69.5821 156.872 68.28C156.872 67.6135 156.511 67.4904 155.36 67.7633C154.174 68.0454 153.893 67.9388 154.053 67.2686C154.166 66.7982 154.523 66.4418 154.848 66.4759C155.173 66.51 155.694 66.1365 156.007 65.6467C156.5 64.8723 156.39 64.8101 155.164 65.1733C154.387 65.403 153.44 65.7186 153.06 65.8745C152.679 66.0311 152.257 65.8989 152.123 65.5821C151.989 65.2646 152.826 64.8144 153.983 64.5816C155.139 64.3483 156.309 63.7999 156.583 63.3625C156.99 62.7105 157.206 62.7324 157.781 63.4837C158.167 63.9882 158.685 64.2179 158.932 63.9943ZM217.592 63.2985C217.592 63.7987 215.048 64.0503 214.846 63.5702C214.728 63.2912 215.298 63.0627 216.112 63.0627C216.926 63.0627 217.592 63.1687 217.592 63.2985ZM141.649 66.967C141.291 68.3312 140.768 67.6494 140.893 65.9824C141.049 63.9096 141.059 63.8925 141.497 64.9905C141.719 65.548 141.787 66.4375 141.649 66.967ZM171.124 64.681C170.842 64.8479 170.281 64.8582 169.876 64.7035C169.471 64.5487 169.702 64.4123 170.388 64.4001C171.074 64.3879 171.405 64.514 171.124 64.681ZM185.152 64.9216C182.485 65.6168 173.003 65.5943 172.26 64.8905C171.846 64.4988 174.227 64.3227 179.33 64.3666C184.592 64.4129 186.432 64.5877 185.152 64.9216ZM193.782 64.7175C193.153 64.857 192.124 64.857 191.495 64.7175C190.865 64.578 191.38 64.4641 192.638 64.4641C193.896 64.4641 194.411 64.578 193.782 64.7175ZM197.733 64.6846C197.447 64.854 196.979 64.854 196.693 64.6846C196.408 64.5158 196.641 64.3775 197.213 64.3775C197.785 64.3775 198.019 64.5158 197.733 64.6846ZM201.892 64.6846C201.606 64.854 201.138 64.854 200.852 64.6846C200.566 64.5158 200.8 64.3775 201.372 64.3775C201.944 64.3775 202.178 64.5158 201.892 64.6846ZM131.086 65.1885C131.086 66.0756 129.536 67.9339 128.811 67.9169C128 67.8974 128.004 67.8517 128.919 66.7342L129.87 65.5723L128.087 65.3378C126.521 65.1318 126.595 65.0904 128.695 64.9972C130.01 64.9387 131.086 65.0246 131.086 65.1885ZM133.053 65.2586C132.915 65.4608 132.556 65.4828 132.256 65.3067C131.924 65.1123 132.023 64.9679 132.507 64.9387C132.946 64.9125 133.191 65.0563 133.053 65.2586ZM158.535 65.4998C158.535 65.8349 158.734 66.1091 158.976 66.1091C159.218 66.1091 159.3 65.8349 159.159 65.4998C159.018 65.1647 158.82 64.8905 158.719 64.8905C158.617 64.8905 158.535 65.1647 158.535 65.4998ZM288.597 65.2586C288.459 65.4608 288.1 65.4828 287.8 65.3067C287.468 65.1123 287.567 64.9679 288.051 64.9387C288.489 64.9125 288.735 65.0563 288.597 65.2586ZM291.725 65.2939C291.439 65.4633 290.971 65.4633 290.685 65.2939C290.399 65.1251 290.633 64.9868 291.205 64.9868C291.777 64.9868 292.011 65.1251 291.725 65.2939ZM113.09 65.8678C112.952 66.0701 112.593 66.0921 112.293 65.916C111.961 65.7216 112.06 65.5772 112.545 65.548C112.983 65.5218 113.228 65.6656 113.09 65.8678ZM124.753 66.2237C124.662 66.6215 124.34 67.0681 124.036 67.2162C123.726 67.3679 123.604 67.204 123.757 66.8409C123.909 66.479 123.616 66.0799 123.087 65.9312C122.416 65.7423 122.544 65.6418 123.531 65.5827C124.435 65.5285 124.86 65.7515 124.753 66.2237ZM137.948 66.7184C137.797 67.4173 137.874 67.937 138.129 67.937C138.373 67.937 138.572 68.1655 138.572 68.4445C138.572 69.236 136.881 68.8576 136.512 67.9833C136.257 67.3783 135.981 67.36 135.29 67.9023C134.798 68.2873 134.194 68.4195 133.946 68.1953C133.447 67.7432 136.254 65.6278 137.456 65.5492C138.028 65.512 138.148 65.7966 137.948 66.7184ZM216.552 66.1091C216.694 66.4442 216.611 66.7184 216.369 66.7184C216.127 66.7184 215.928 66.4442 215.928 66.1091C215.928 65.774 216.011 65.4998 216.112 65.4998C216.213 65.4998 216.411 65.774 216.552 66.1091ZM220.503 65.7685C220.503 65.9166 220.316 66.2066 220.087 66.4138C219.858 66.6209 219.671 66.4997 219.671 66.1451C219.671 65.7905 219.858 65.4998 220.087 65.4998C220.316 65.4998 220.503 65.6205 220.503 65.7685ZM281.335 65.8995C281.054 66.0665 280.492 66.0768 280.088 65.9221C279.683 65.7673 279.913 65.6308 280.6 65.6187C281.286 65.6065 281.617 65.7326 281.335 65.8995ZM283.606 65.8678C283.468 66.0701 283.109 66.0921 282.809 65.916C282.477 65.7216 282.576 65.5772 283.06 65.548C283.499 65.5218 283.744 65.6656 283.606 65.8678ZM119.233 66.7184C119.375 67.0535 119.292 67.3277 119.05 67.3277C118.808 67.3277 118.609 67.0535 118.609 66.7184C118.609 66.3833 118.692 66.1091 118.793 66.1091C118.894 66.1091 119.092 66.3833 119.233 66.7184ZM168.404 66.4771C168.266 66.6794 167.907 66.7013 167.607 66.5253C167.275 66.3309 167.374 66.1865 167.858 66.1572C168.297 66.1311 168.542 66.2748 168.404 66.4771ZM170.483 66.4771C170.345 66.6794 169.986 66.7013 169.686 66.5253C169.355 66.3309 169.453 66.1865 169.938 66.1572C170.376 66.1311 170.621 66.2748 170.483 66.4771ZM174.339 67.0231C174.339 67.5257 174.526 67.937 174.755 67.937C174.984 67.937 175.17 67.5946 175.17 67.1754C175.169 66.61 176.082 66.465 178.711 66.6112C180.852 66.7306 182.154 67.0413 182.004 67.3978C181.867 67.7213 181.425 67.8328 181.021 67.6451C180.618 67.4575 179.744 67.7195 179.081 68.2264C178.013 69.0428 177.859 69.0441 177.74 68.238C177.589 67.2205 175.778 66.9895 175.379 67.937C175.1 68.5981 173.385 68.7735 172.982 68.1819C172.577 67.5891 173.133 66.1091 173.76 66.1091C174.078 66.1091 174.339 66.5204 174.339 67.0231ZM212.601 67.0231C212.163 67.7969 212.254 67.937 213.199 67.937C213.836 67.937 214.204 68.1978 214.057 68.5463C213.915 68.8814 213.406 69.1556 212.923 69.1556C212.441 69.1556 212.18 69.3518 212.344 69.5912C212.508 69.8307 214.156 69.9421 216.007 69.8398C219.015 69.6728 219.345 69.7618 219.107 70.6739C218.931 71.3453 219.017 71.5988 219.359 71.4154C219.645 71.2613 219.833 70.8274 219.775 70.4503C219.718 70.0732 220.15 69.7648 220.736 69.7648C221.339 69.7648 221.689 70.0287 221.543 70.3741C221.401 70.7092 221.484 70.9834 221.726 70.9834C221.968 70.9834 222.167 70.7092 222.167 70.3741C222.167 69.3603 223.722 69.6917 224.004 70.7659C224.148 71.3167 224.203 71.859 224.127 71.9711C224.05 72.0826 222.143 72.2489 219.889 72.3403C216.897 72.4616 215.744 72.3013 215.617 71.745C215.521 71.3264 215.073 70.9834 214.622 70.9834C214.169 70.9834 213.915 71.2576 214.057 71.5927C214.207 71.9479 213.784 72.202 213.042 72.202C212.342 72.202 211.769 71.9278 211.769 71.5927C211.769 71.2576 211.077 70.9834 210.231 70.9834C208.548 70.9834 208.763 70.0092 210.522 69.6643C211.304 69.5108 211.594 69.0447 211.693 67.7847C211.774 66.7574 212.075 66.1091 212.472 66.1091C213 66.1091 213.024 66.2773 212.601 67.0231ZM253.982 67.5141C254.44 67.689 253.925 67.8042 252.839 67.7707C251.752 67.7371 250.863 67.4678 250.863 67.1729C250.863 66.8774 251.261 66.8214 251.747 67.0474C252.423 67.3612 252.551 67.2637 252.291 66.6313C252.024 65.9812 252.079 65.9531 252.551 66.5003C252.881 66.8835 253.525 67.3393 253.982 67.5141ZM201.996 67.3277C201.855 67.6628 201.563 67.937 201.348 67.937C201.132 67.937 200.956 67.6628 200.956 67.3277C200.956 66.9926 201.248 66.7184 201.605 66.7184C201.961 66.7184 202.137 66.9926 201.996 67.3277ZM157.703 67.937C158.51 68.7004 158.951 68.7004 158.951 67.937C158.951 67.6019 158.53 67.332 158.015 67.3368C157.259 67.3448 157.199 67.4593 157.703 67.937ZM196.797 68.2014C196.797 68.6962 197.293 69.1677 197.941 69.289C198.858 69.4608 198.745 69.5607 197.369 69.7953C195.805 70.0616 195.654 69.9653 195.654 68.7077C195.654 67.9431 195.908 67.3277 196.225 67.3277C196.54 67.3277 196.797 67.7207 196.797 68.2014ZM209.69 67.8462C209.69 68.1521 208.938 68.4177 208.018 68.4366C207.098 68.4549 206.43 68.2703 206.533 68.0266C206.812 67.3649 209.69 67.2004 209.69 67.8462ZM80.1394 68.5463C80.2808 68.8814 80.1045 69.1556 79.7481 69.1556C79.3916 69.1556 79.0997 68.8814 79.0997 68.5463C79.0997 68.2112 79.2756 67.937 79.4911 67.937C79.7065 67.937 79.998 68.2112 80.1394 68.5463ZM162.694 68.5822C162.694 68.9368 162.486 69.0392 162.232 68.8089C161.977 68.5786 161.606 68.768 161.406 69.2299C161.119 69.894 161.042 69.8465 161.037 69.0032C161.033 68.3403 161.345 67.937 161.862 67.937C162.32 67.937 162.694 68.2276 162.694 68.5822ZM168.517 68.394C168.517 68.645 168.067 68.8509 167.516 68.8509C166.967 68.8509 166.603 68.645 166.71 68.394C166.815 68.1429 167.265 67.937 167.709 67.937C168.154 67.937 168.517 68.1429 168.517 68.394ZM247.744 68.5463C247.603 68.8814 247.077 69.1361 246.576 69.1129C245.697 69.0715 245.695 69.0514 246.496 68.5463C247.641 67.8255 248.048 67.8255 247.744 68.5463ZM278.312 68.5463C278.312 68.8814 278.733 69.1598 279.248 69.1647C279.762 69.1702 280.464 69.4401 280.808 69.7648C281.268 70.2005 280.94 70.3894 279.56 70.4838C278.531 70.5545 277.033 70.7208 276.233 70.853C275.432 70.9859 268.32 71.1747 260.429 71.2728C252.537 71.3709 247.203 71.2466 248.576 70.9962C249.948 70.7464 252.007 70.3711 253.151 70.1627C257.545 69.3627 262.875 69.1543 263.135 69.7716C263.279 70.114 263.59 70.22 263.824 70.0073C264.059 69.7953 264.688 69.9641 265.223 70.3833C265.758 70.8025 266.535 70.9463 266.951 70.7025C267.367 70.4588 269.052 70.2115 270.695 70.153C272.339 70.0945 273.806 69.8672 273.956 69.6479C274.105 69.4291 274.866 69.4017 275.646 69.5869C276.774 69.855 277.065 69.721 277.065 68.9307C277.065 68.3842 277.345 67.937 277.688 67.937C278.031 67.937 278.312 68.2112 278.312 68.5463ZM290.546 68.6986C290.74 69.3079 290.838 69.3079 291.031 68.6986C291.293 67.8797 294.764 67.6189 295.092 68.394C295.197 68.645 294.46 68.7546 293.453 68.6371C292.309 68.5036 291.621 68.6754 291.621 69.094C291.621 70.1103 289.665 69.8971 289.391 68.8509C289.1 67.7396 290.195 67.5952 290.546 68.6986ZM194.094 69.1556C193.953 69.4907 193.333 69.7453 192.718 69.7222C191.718 69.6838 191.688 69.6229 192.43 69.1556C193.586 68.4281 194.401 68.4281 194.094 69.1556ZM233.188 69.1556C233.046 69.4907 233.316 69.7648 233.787 69.7648C234.258 69.7648 234.643 69.4907 234.643 69.1556C234.643 68.436 235.449 68.5987 236.134 69.4566C236.762 70.2431 234.627 71.6317 233.47 71.1888C233.024 71.0175 232.532 71.1753 232.379 71.5397C232.225 71.9041 231.818 72.202 231.475 72.202C231.132 72.202 230.976 71.9065 231.128 71.5458C231.32 71.0913 230.816 71.0188 229.489 71.31C228.327 71.5653 227.573 71.4977 227.573 71.1376C227.573 70.8116 228.646 70.3821 229.958 70.184C231.27 69.986 232.408 69.5364 232.488 69.1848C232.568 68.8339 232.816 68.5463 233.039 68.5463C233.262 68.5463 233.329 68.8204 233.188 69.1556ZM245.079 69.108C244.757 69.4072 243.942 69.5498 243.269 69.4249C242.326 69.25 241.995 69.473 241.831 70.3955C241.713 71.0541 241.457 71.5927 241.262 71.5927C240.813 71.5927 241.297 69.6089 241.891 69.0124C242.137 68.7662 243.086 68.5652 244.001 68.5652C245.136 68.5652 245.479 68.7376 245.079 69.108ZM98.6466 69.6936C98.6466 70.4192 97.0388 70.9987 96.773 70.3693C96.657 70.0939 96.7972 69.7301 97.0845 69.5601C97.9363 69.0569 98.6466 69.1178 98.6466 69.6936ZM104.053 69.7648C104.053 70.1 103.877 70.3741 103.662 70.3741C103.446 70.3741 103.155 70.1 103.014 69.7648C102.872 69.4297 103.048 69.1556 103.405 69.1556C103.761 69.1556 104.053 69.4297 104.053 69.7648ZM111.539 69.6984C111.539 70.6197 108.502 70.8159 107.392 69.9665C106.418 69.2226 106.533 69.1629 108.94 69.1592C110.37 69.1574 111.539 69.3999 111.539 69.6984ZM112.818 69.9324C112.767 70.6611 112.196 70.5198 112.018 69.7344C111.926 69.3322 112.076 69.1129 112.35 69.2469C112.625 69.381 112.835 69.6893 112.818 69.9324ZM116.501 71.8517C116.517 72.1618 116.183 71.8876 115.759 71.2424C115.236 70.4473 115.136 69.9294 115.447 69.6351C115.863 69.2402 116.427 70.4253 116.501 71.8517ZM120.031 69.5254C120.877 70.0013 120.884 70.9834 120.041 70.9834C119.684 70.9834 119.501 71.2411 119.634 71.5555C119.766 71.8705 119.498 72.0868 119.037 72.0357C118.174 71.9406 118.04 70.4588 118.817 69.6217C119.327 69.0733 119.239 69.08 120.031 69.5254ZM283.303 69.7648C283.303 70.1 282.975 70.3699 282.575 70.365C281.953 70.3571 281.938 70.2693 282.471 69.7648C283.256 69.0215 283.303 69.0215 283.303 69.7648ZM124.24 70.7135C123.176 71.3533 123.12 71.4952 123.824 71.7572C124.484 72.0028 124.44 72.074 123.596 72.1313C122.994 72.1721 122.351 71.7292 122.076 71.0852C121.64 70.0616 121.763 69.9683 123.536 69.9708C125.454 69.9732 125.46 69.9799 124.24 70.7135ZM129.957 71.416C130.125 72.7004 130.026 72.8649 129.268 72.5664C128.781 72.375 127.634 72.2063 126.719 72.1916C125.373 72.1703 125.196 72.0448 125.792 71.5367C126.197 71.1912 126.425 70.6611 126.297 70.3583C126.169 70.0561 126.897 69.8331 127.913 69.8629C129.533 69.9105 129.786 70.1024 129.957 71.416ZM142.178 71.3265C142.61 72.1916 142.846 72.2782 143.232 71.7121C143.924 70.6977 144.811 70.8012 144.811 71.8974C144.811 72.6096 144.283 72.8009 142.419 72.7632C141.104 72.737 140.262 72.5767 140.548 72.4079C141.771 71.6847 140.9 70.9834 138.78 70.9834C136.306 70.9834 135.641 71.9699 137.844 72.3708C138.685 72.5231 138.301 72.6529 136.829 72.7138C135.501 72.7686 134.34 72.5207 134.183 72.149C133.982 71.6719 133.777 71.6719 133.451 72.149C133.203 72.5133 132.719 72.8113 132.376 72.8113C131.914 72.8113 131.874 72.6328 132.218 72.1277C132.475 71.7517 132.581 71.0486 132.455 70.5648C132.26 69.8215 132.951 69.7265 136.923 69.9489C140.866 70.1694 141.711 70.3906 142.178 71.3265ZM151.463 71.1357C151.466 71.8163 148.644 71.689 148.351 70.995C148.199 70.6349 148.765 70.4533 149.78 70.538C150.704 70.6154 151.462 70.8847 151.463 71.1357ZM166.437 70.9475C166.437 71.2631 166.25 71.6896 166.022 71.8961C165.297 72.5529 154.063 72.2513 153.129 71.5501C152.654 71.1936 157.805 70.5661 161.966 70.4734C164.531 70.4168 166.437 70.6185 166.437 70.9475ZM184.676 71.3009C185.114 71.943 184.327 72.1606 180.448 72.4695C176.471 72.7869 172.26 72.0107 172.26 70.9603C172.26 70.4247 184.303 70.7555 184.676 71.3009ZM199.501 71.5708C196.818 71.9217 194.801 71.6634 195.468 71.0541C195.695 70.8475 197.256 70.8061 198.938 70.9615L201.996 71.2442L199.501 71.5708ZM206.779 70.9834C206.779 71.3185 206.696 71.5927 206.595 71.5927C206.494 71.5927 206.296 71.3185 206.155 70.9834C206.013 70.6483 206.096 70.3741 206.338 70.3741C206.58 70.3741 206.779 70.6483 206.779 70.9834ZM216.136 70.9834C215.995 71.3185 216.171 71.5927 216.528 71.5927C216.884 71.5927 217.176 71.3185 217.176 70.9834C217.176 70.6483 217 70.3741 216.785 70.3741C216.569 70.3741 216.278 70.6483 216.136 70.9834ZM302.356 70.7903C302.656 70.9664 303.015 70.9444 303.153 70.7421C303.291 70.5399 303.046 70.3961 302.607 70.4223C302.123 70.4515 302.024 70.5959 302.356 70.7903ZM204.931 71.5354C204.803 71.8389 204.324 71.9443 203.867 71.7688C202.722 71.3307 202.826 70.9834 204.1 70.9834C204.685 70.9834 205.059 71.232 204.931 71.5354ZM226.43 71.3868C226.144 71.5562 225.676 71.5562 225.39 71.3868C225.104 71.218 225.338 71.0797 225.91 71.0797C226.482 71.0797 226.716 71.218 226.43 71.3868ZM245.561 71.3868C245.275 71.5562 244.807 71.5562 244.521 71.3868C244.235 71.218 244.469 71.0797 245.041 71.0797C245.613 71.0797 245.847 71.218 245.561 71.3868ZM299.315 74.0299C299.456 74.365 299.654 74.6392 299.755 74.6392C299.856 74.6392 299.939 74.365 299.939 74.0299C299.939 73.6947 299.74 73.4206 299.498 73.4206C299.256 73.4206 299.173 73.6947 299.315 74.0299ZM310.258 73.8367C310.558 74.0128 310.917 73.9909 311.055 73.7886C311.193 73.5863 310.948 73.4425 310.509 73.4687C310.025 73.498 309.926 73.6423 310.258 73.8367ZM140.235 81.4936C140.235 81.7447 136.446 81.8994 131.814 81.8373C125.984 81.7587 124.48 81.6179 126.927 81.3803C132.005 80.8868 140.234 80.9568 140.235 81.4936ZM144.395 81.7172C144.395 81.8452 143.506 81.9183 142.419 81.8787C140.72 81.8166 140.619 81.7483 141.692 81.3913C142.857 81.0032 144.395 81.189 144.395 81.7172ZM122.872 81.7447C122.587 81.914 122.119 81.914 121.833 81.7447C121.547 81.5759 121.781 81.4376 122.353 81.4376C122.924 81.4376 123.159 81.5759 122.872 81.7447ZM85.2329 83.0437C85.5211 83.3215 83.8147 83.5646 81.3908 83.5908C78.9924 83.617 77.1055 83.4598 77.1978 83.2411C77.4498 82.644 84.6348 82.4679 85.2329 83.0437ZM275.323 83.5853C275.623 83.7614 275.982 83.7395 276.12 83.5372C276.258 83.3349 276.013 83.1911 275.574 83.2173C275.09 83.2466 274.991 83.391 275.323 83.5853ZM244.928 84.1465C244.79 84.3488 244.431 84.3707 244.131 84.1946C243.799 84.0002 243.898 83.8558 244.382 83.8266C244.821 83.8004 245.066 83.9442 244.928 84.1465ZM100.391 85.4516C102.838 85.5588 106.955 85.5594 109.541 85.4522C112.127 85.3449 110.125 85.2572 105.093 85.2566C100.061 85.256 97.945 85.3437 100.391 85.4516ZM137.665 85.7391C137.887 86.0639 138.416 86.2223 138.84 86.0901C139.412 85.9128 139.307 85.7593 138.437 85.4997C137.678 85.2724 137.404 85.3577 137.665 85.7391ZM266.589 85.4132C266.889 85.5893 267.248 85.5673 267.386 85.365C267.524 85.1628 267.279 85.019 266.841 85.0452C266.356 85.0744 266.258 85.2188 266.589 85.4132ZM140.969 86.0371C141.486 86.1827 142.235 86.1772 142.632 86.0249C143.03 85.8726 142.606 85.7532 141.692 85.7599C140.777 85.7666 140.451 85.8915 140.969 86.0371ZM146.791 86.0371C147.309 86.1827 148.057 86.1772 148.455 86.0249C148.852 85.8726 148.429 85.7532 147.514 85.7599C146.599 85.7666 146.274 85.8915 146.791 86.0371ZM159.686 86.0481C160.434 86.1833 161.557 86.1809 162.182 86.042C162.807 85.9024 162.195 85.7915 160.823 85.7952C159.45 85.7982 158.939 85.9122 159.686 86.0481ZM165.715 86.0438C166.347 86.1833 167.283 86.1797 167.795 86.0353C168.306 85.8909 167.789 85.7763 166.645 85.7806C165.501 85.7855 165.083 85.9037 165.715 86.0438ZM220.191 86.0261C220.591 86.1797 221.247 86.1797 221.647 86.0261C222.047 85.8732 221.72 85.7477 220.919 85.7477C220.118 85.7477 219.791 85.8732 220.191 86.0261ZM227.053 86.0097C227.34 86.1791 227.807 86.1791 228.093 86.0097C228.379 85.8409 228.145 85.7026 227.573 85.7026C227.001 85.7026 226.768 85.8409 227.053 86.0097Z" fill="#4F1D75"/>
</symbol>
</defs>
<use href="#brush-stroke"/>
</svg>
